# xmcd
#
# Track frame offsets: 
#        150
#        33535
#        62575
#        84212
#
# Disc length: 1382 seconds
#
# Revision: 0
# Processed by: cddbd v1.5.2PL0 Copyright (c) Steve Scherf et al.
# Submitted via: ExactAudioCopy v0.99pb4
#
DISCID=26056404
DTITLE=Jocelyn Brown - 12 Inch Classics on CD
DYEAR=1900
DGENRE=Dance-house
TTITLE0=I'm Caught Up (In A One Night Love Affair) - 12" mix
TTITLE1=Picking Up Promises (Remix)
TTITLE2=You Got Me
TTITLE3=I'm Caught Up (In A One Night Love Affair) - single mix
EXTD=
EXTT0=
EXTT1=
EXTT2=
EXTT3=
PLAYORDER=
